<mxfile host="app.diagrams.net" modified="2023-10-17T01:05:29.781Z" agent="Mozilla/5.0 (Windows NT 10.0; Win64; x64; rv:109.0) Gecko/20100101 Firefox/118.0" etag="O9vStMC7iaxtDuhoew8S" version="22.0.4" type="device">
  <diagram id="C5RBs43oDa-KdzZeNtuy" name="Page-1">
    <mxGraphModel dx="882" dy="542" grid="1" gridSize="10" guides="1" tooltips="1" connect="1" arrows="1" fold="1" page="1" pageScale="1" pageWidth="827" pageHeight="1169" math="0" shadow="0">
      <root>
        <mxCell id="WIyWlLk6GJQsqaUBKTNV-0" />
        <mxCell id="WIyWlLk6GJQsqaUBKTNV-1" parent="WIyWlLk6GJQsqaUBKTNV-0" />
        <mxCell id="8gCY-IUlAWU1cVGWxZMt-0" value="&lt;div&gt;User&lt;/div&gt;&lt;div&gt;&lt;br&gt;&lt;/div&gt;" style="shape=umlActor;verticalLabelPosition=bottom;verticalAlign=top;html=1;outlineConnect=0;" parent="WIyWlLk6GJQsqaUBKTNV-1" vertex="1">
          <mxGeometry x="80" y="260" width="30" height="60" as="geometry" />
        </mxCell>
        <mxCell id="8gCY-IUlAWU1cVGWxZMt-1" value="" style="endArrow=none;html=1;rounded=0;" parent="WIyWlLk6GJQsqaUBKTNV-1" source="8gCY-IUlAWU1cVGWxZMt-0" target="8gCY-IUlAWU1cVGWxZMt-2" edge="1">
          <mxGeometry width="50" height="50" relative="1" as="geometry">
            <mxPoint x="120" y="280" as="sourcePoint" />
            <mxPoint x="440" y="360" as="targetPoint" />
          </mxGeometry>
        </mxCell>
        <mxCell id="8gCY-IUlAWU1cVGWxZMt-2" value="Research Park" style="ellipse;whiteSpace=wrap;html=1;" parent="WIyWlLk6GJQsqaUBKTNV-1" vertex="1">
          <mxGeometry x="260" y="80" width="120" height="80" as="geometry" />
        </mxCell>
        <mxCell id="8gCY-IUlAWU1cVGWxZMt-3" value="" style="endArrow=none;html=1;rounded=0;" parent="WIyWlLk6GJQsqaUBKTNV-1" source="8gCY-IUlAWU1cVGWxZMt-0" target="8gCY-IUlAWU1cVGWxZMt-4" edge="1">
          <mxGeometry width="50" height="50" relative="1" as="geometry">
            <mxPoint x="170" y="370" as="sourcePoint" />
            <mxPoint x="490" y="450" as="targetPoint" />
          </mxGeometry>
        </mxCell>
        <mxCell id="8gCY-IUlAWU1cVGWxZMt-4" value="Reservation Functions" style="ellipse;whiteSpace=wrap;html=1;" parent="WIyWlLk6GJQsqaUBKTNV-1" vertex="1">
          <mxGeometry x="260" y="240" width="120" height="80" as="geometry" />
        </mxCell>
        <mxCell id="8gCY-IUlAWU1cVGWxZMt-5" value="" style="endArrow=none;html=1;rounded=0;" parent="WIyWlLk6GJQsqaUBKTNV-1" source="8gCY-IUlAWU1cVGWxZMt-0" target="8gCY-IUlAWU1cVGWxZMt-6" edge="1">
          <mxGeometry width="50" height="50" relative="1" as="geometry">
            <mxPoint x="150" y="370" as="sourcePoint" />
            <mxPoint x="500" y="711.43" as="targetPoint" />
          </mxGeometry>
        </mxCell>
        <mxCell id="8gCY-IUlAWU1cVGWxZMt-6" value="Pay Fees" style="ellipse;whiteSpace=wrap;html=1;" parent="WIyWlLk6GJQsqaUBKTNV-1" vertex="1">
          <mxGeometry x="260" y="380" width="120" height="80" as="geometry" />
        </mxCell>
        <mxCell id="8gCY-IUlAWU1cVGWxZMt-7" value="" style="endArrow=none;html=1;rounded=0;exitX=1;exitY=0.5;exitDx=0;exitDy=0;" parent="WIyWlLk6GJQsqaUBKTNV-1" source="8gCY-IUlAWU1cVGWxZMt-2" target="8gCY-IUlAWU1cVGWxZMt-8" edge="1">
          <mxGeometry width="50" height="50" relative="1" as="geometry">
            <mxPoint x="498.96000000000004" y="49.999999999999964" as="sourcePoint" />
            <mxPoint x="594" y="346.96" as="targetPoint" />
          </mxGeometry>
        </mxCell>
        <mxCell id="8gCY-IUlAWU1cVGWxZMt-8" value="Search Location" style="ellipse;whiteSpace=wrap;html=1;" parent="WIyWlLk6GJQsqaUBKTNV-1" vertex="1">
          <mxGeometry x="370" y="7.105427357601002e-15" width="120" height="80" as="geometry" />
        </mxCell>
        <mxCell id="8gCY-IUlAWU1cVGWxZMt-9" value="" style="endArrow=none;html=1;rounded=0;exitX=1;exitY=0;exitDx=0;exitDy=0;entryX=-0.058;entryY=0.538;entryDx=0;entryDy=0;entryPerimeter=0;" parent="WIyWlLk6GJQsqaUBKTNV-1" source="8gCY-IUlAWU1cVGWxZMt-4" target="8gCY-IUlAWU1cVGWxZMt-10" edge="1">
          <mxGeometry width="50" height="50" relative="1" as="geometry">
            <mxPoint x="380" y="249.27" as="sourcePoint" />
            <mxPoint x="541.5889360201311" y="119.9988511838949" as="targetPoint" />
          </mxGeometry>
        </mxCell>
        <mxCell id="8gCY-IUlAWU1cVGWxZMt-10" value="Search Permit Availability" style="ellipse;whiteSpace=wrap;html=1;" parent="WIyWlLk6GJQsqaUBKTNV-1" vertex="1">
          <mxGeometry x="590" y="210" width="120" height="80" as="geometry" />
        </mxCell>
        <mxCell id="8gCY-IUlAWU1cVGWxZMt-11" value="" style="endArrow=none;html=1;rounded=0;exitX=1;exitY=0.688;exitDx=0;exitDy=0;exitPerimeter=0;" parent="WIyWlLk6GJQsqaUBKTNV-1" source="8gCY-IUlAWU1cVGWxZMt-4" target="8gCY-IUlAWU1cVGWxZMt-12" edge="1">
          <mxGeometry width="50" height="50" relative="1" as="geometry">
            <mxPoint x="500" y="310" as="sourcePoint" />
            <mxPoint x="774.96" y="550" as="targetPoint" />
          </mxGeometry>
        </mxCell>
        <mxCell id="8gCY-IUlAWU1cVGWxZMt-12" value="Create/Upload Pemit" style="ellipse;whiteSpace=wrap;html=1;" parent="WIyWlLk6GJQsqaUBKTNV-1" vertex="1">
          <mxGeometry x="580" y="320" width="120" height="80" as="geometry" />
        </mxCell>
        <mxCell id="8gCY-IUlAWU1cVGWxZMt-13" value="" style="endArrow=none;html=1;rounded=0;exitX=0.35;exitY=0.038;exitDx=0;exitDy=0;exitPerimeter=0;entryX=0.425;entryY=0.975;entryDx=0;entryDy=0;entryPerimeter=0;" parent="WIyWlLk6GJQsqaUBKTNV-1" source="8gCY-IUlAWU1cVGWxZMt-6" target="8gCY-IUlAWU1cVGWxZMt-4" edge="1">
          <mxGeometry width="50" height="50" relative="1" as="geometry">
            <mxPoint x="270" y="370" as="sourcePoint" />
            <mxPoint x="310" y="340" as="targetPoint" />
          </mxGeometry>
        </mxCell>
        <mxCell id="8gCY-IUlAWU1cVGWxZMt-14" value="" style="endArrow=none;html=1;rounded=0;exitX=1;exitY=0.5;exitDx=0;exitDy=0;" parent="WIyWlLk6GJQsqaUBKTNV-1" target="8gCY-IUlAWU1cVGWxZMt-15" edge="1">
          <mxGeometry width="50" height="50" relative="1" as="geometry">
            <mxPoint x="358" y="150" as="sourcePoint" />
            <mxPoint x="762" y="350" as="targetPoint" />
          </mxGeometry>
        </mxCell>
        <mxCell id="8gCY-IUlAWU1cVGWxZMt-15" value="Search Features" style="ellipse;whiteSpace=wrap;html=1;" parent="WIyWlLk6GJQsqaUBKTNV-1" vertex="1">
          <mxGeometry x="450" y="120" width="120" height="80" as="geometry" />
        </mxCell>
        <mxCell id="8gCY-IUlAWU1cVGWxZMt-16" value="" style="endArrow=none;html=1;rounded=0;exitX=0.992;exitY=0.6;exitDx=0;exitDy=0;exitPerimeter=0;" parent="WIyWlLk6GJQsqaUBKTNV-1" source="8gCY-IUlAWU1cVGWxZMt-2" target="8gCY-IUlAWU1cVGWxZMt-17" edge="1">
          <mxGeometry width="50" height="50" relative="1" as="geometry">
            <mxPoint x="419.68864904050974" y="134.0696806163984" as="sourcePoint" />
            <mxPoint x="760" y="390" as="targetPoint" />
          </mxGeometry>
        </mxCell>
        <mxCell id="8gCY-IUlAWU1cVGWxZMt-17" value="&lt;div&gt;Search hours&lt;/div&gt;" style="ellipse;whiteSpace=wrap;html=1;" parent="WIyWlLk6GJQsqaUBKTNV-1" vertex="1">
          <mxGeometry x="510" y="30" width="120" height="80" as="geometry" />
        </mxCell>
        <mxCell id="8gCY-IUlAWU1cVGWxZMt-18" value="" style="endArrow=none;html=1;rounded=0;exitX=0.208;exitY=0.175;exitDx=0;exitDy=0;exitPerimeter=0;" parent="WIyWlLk6GJQsqaUBKTNV-1" target="8gCY-IUlAWU1cVGWxZMt-19" edge="1">
          <mxGeometry width="50" height="50" relative="1" as="geometry">
            <mxPoint x="314.96000000000004" y="80" as="sourcePoint" />
            <mxPoint x="310" y="266" as="targetPoint" />
          </mxGeometry>
        </mxCell>
        <mxCell id="8gCY-IUlAWU1cVGWxZMt-19" value="Search Personnel" style="ellipse;whiteSpace=wrap;html=1;" parent="WIyWlLk6GJQsqaUBKTNV-1" vertex="1">
          <mxGeometry x="200" width="120" height="80" as="geometry" />
        </mxCell>
        <mxCell id="aEx2hdbLSOf0eHTJyyT5-0" value="Cancel Permit" style="ellipse;whiteSpace=wrap;html=1;" vertex="1" parent="WIyWlLk6GJQsqaUBKTNV-1">
          <mxGeometry x="570" y="420" width="120" height="80" as="geometry" />
        </mxCell>
        <mxCell id="aEx2hdbLSOf0eHTJyyT5-1" value="" style="endArrow=none;html=1;rounded=0;entryX=0.167;entryY=0;entryDx=0;entryDy=0;entryPerimeter=0;" edge="1" parent="WIyWlLk6GJQsqaUBKTNV-1" source="8gCY-IUlAWU1cVGWxZMt-4" target="aEx2hdbLSOf0eHTJyyT5-0">
          <mxGeometry width="50" height="50" relative="1" as="geometry">
            <mxPoint x="390" y="300" as="sourcePoint" />
            <mxPoint x="440" y="250" as="targetPoint" />
          </mxGeometry>
        </mxCell>
      </root>
    </mxGraphModel>
  </diagram>
</mxfile>
